<svg width="18" height="18" viewBox="0 0 18 18" fill="none" xmlns="http://www.w3.org/2000/svg">
<path d="M18 13.5C18 14.0304 17.7893 14.5391 17.4142 14.9142C17.0391 15.2893 16.5304 15.5 16 15.5H2C1.46957 15.5 0.960859 15.2893 0.585786 14.9142C0.210714 14.5391 0 14.0304 0 13.5V4.5C0 3.96957 0.210714 3.46086 0.585786 3.08579C0.960859 2.71071 1.46957 2.5 2 2.5H16C16.5304 2.5 17.0391 2.71071 17.4142 3.08579C17.7893 3.46086 18 3.96957 18 4.5V13.5Z" fill="#009B3A"/>
<path d="M16.364 9L8.99999 14.562L1.63599 9L8.99999 3.4375L16.364 9Z" fill="#FEDF01"/>
<path d="M8.98803 12.191C10.7714 12.191 12.217 10.7453 12.217 8.96197C12.217 7.17864 10.7714 5.73297 8.98803 5.73297C7.20471 5.73297 5.75903 7.17864 5.75903 8.96197C5.75903 10.7453 7.20471 12.191 8.98803 12.191Z" fill="#002776"/>
<path d="M6.13849 7.44347C5.97073 7.75949 5.85716 8.10139 5.80249 8.45497C7.79999 8.30997 10.511 9.40047 11.6745 10.7525C11.8755 10.4505 12.0245 10.1125 12.116 9.75047C10.68 8.34647 8.15749 7.43547 6.13849 7.44347Z" fill="#CBE9D4"/>
<path d="M6 9.11652H6.5V9.61652H6V9.11652ZM6.5 10.1165H7V10.6165H6.5V10.1165Z" fill="#88C9F9"/>
<path d="M7.5 9.11652H8V9.61652H7.5V9.11652ZM8.5 9.61652H9V10.1165H8.5V9.61652ZM10.5 10.6165H11V11.1165H10.5V10.6165ZM9 11.1165H9.5V11.6165H9V11.1165ZM10.5 8.11652H11V8.61652H10.5V8.11652Z" fill="#55ACEE"/>
<path d="M9.5 10.1165H10V10.6165H9.5V10.1165Z" fill="#3B88C3"/>
</svg>
